<mxfile host="app.diagrams.net" agent="Mozilla/5.0 (Windows NT 10.0; Win64; x64) AppleWebKit/537.36 (KHTML, like Gecko) Chrome/135.0.0.0 Safari/537.36" version="26.2.14">
  <diagram name="Page-1" id="p3lWa1KXnFNIeKpWOAbk">
    <mxGraphModel dx="1044" dy="578" grid="1" gridSize="10" guides="1" tooltips="1" connect="1" arrows="1" fold="1" page="1" pageScale="1" pageWidth="850" pageHeight="1100" math="0" shadow="0">
      <root>
        <mxCell id="0" />
        <mxCell id="1" parent="0" />
        <mxCell id="R2KADZB4RXVdeiBkRrap-1" value="" style="whiteSpace=wrap;html=1;aspect=fixed;" vertex="1" parent="1">
          <mxGeometry x="160" y="350" width="500" height="500" as="geometry" />
        </mxCell>
        <mxCell id="R2KADZB4RXVdeiBkRrap-2" value="Customer" style="shape=umlActor;verticalLabelPosition=bottom;verticalAlign=top;html=1;outlineConnect=0;" vertex="1" parent="1">
          <mxGeometry x="62" y="550" width="30" height="60" as="geometry" />
        </mxCell>
        <mxCell id="R2KADZB4RXVdeiBkRrap-3" value="" style="edgeStyle=elbowEdgeStyle;elbow=horizontal;endArrow=classic;html=1;curved=0;rounded=0;endSize=8;startSize=8;entryX=0.328;entryY=0.12;entryDx=0;entryDy=0;entryPerimeter=0;" edge="1" parent="1" target="R2KADZB4RXVdeiBkRrap-1">
          <mxGeometry width="50" height="50" relative="1" as="geometry">
            <mxPoint x="290" y="610" as="sourcePoint" />
            <mxPoint x="340" y="550" as="targetPoint" />
          </mxGeometry>
        </mxCell>
        <mxCell id="R2KADZB4RXVdeiBkRrap-4" value="" style="edgeStyle=elbowEdgeStyle;elbow=horizontal;endArrow=classic;html=1;curved=0;rounded=0;endSize=8;startSize=8;" edge="1" parent="1">
          <mxGeometry width="50" height="50" relative="1" as="geometry">
            <mxPoint x="98" y="580" as="sourcePoint" />
            <mxPoint x="160" y="550" as="targetPoint" />
          </mxGeometry>
        </mxCell>
        <mxCell id="R2KADZB4RXVdeiBkRrap-5" value="Registration" style="ellipse;whiteSpace=wrap;html=1;" vertex="1" parent="1">
          <mxGeometry x="160" y="530" width="130" height="50" as="geometry" />
        </mxCell>
        <mxCell id="R2KADZB4RXVdeiBkRrap-6" value="" style="edgeStyle=elbowEdgeStyle;elbow=horizontal;endArrow=classic;html=1;curved=0;rounded=0;endSize=8;startSize=8;" edge="1" parent="1">
          <mxGeometry width="50" height="50" relative="1" as="geometry">
            <mxPoint x="102" y="590" as="sourcePoint" />
            <mxPoint x="160" y="610" as="targetPoint" />
          </mxGeometry>
        </mxCell>
        <mxCell id="R2KADZB4RXVdeiBkRrap-7" value="Login" style="ellipse;whiteSpace=wrap;html=1;" vertex="1" parent="1">
          <mxGeometry x="160" y="590" width="130" height="40" as="geometry" />
        </mxCell>
        <mxCell id="R2KADZB4RXVdeiBkRrap-9" value="Bill Type" style="ellipse;whiteSpace=wrap;html=1;" vertex="1" parent="1">
          <mxGeometry x="320" y="386" width="130" height="40" as="geometry" />
        </mxCell>
        <mxCell id="R2KADZB4RXVdeiBkRrap-10" value="Bill Details" style="ellipse;whiteSpace=wrap;html=1;" vertex="1" parent="1">
          <mxGeometry x="323" y="461" width="130" height="40" as="geometry" />
        </mxCell>
        <mxCell id="R2KADZB4RXVdeiBkRrap-11" value="Make Payment" style="ellipse;whiteSpace=wrap;html=1;" vertex="1" parent="1">
          <mxGeometry x="329" y="536" width="130" height="40" as="geometry" />
        </mxCell>
        <mxCell id="R2KADZB4RXVdeiBkRrap-12" value="Payment Confirmation" style="ellipse;whiteSpace=wrap;html=1;" vertex="1" parent="1">
          <mxGeometry x="332" y="608" width="138" height="40" as="geometry" />
        </mxCell>
        <mxCell id="R2KADZB4RXVdeiBkRrap-13" value="Payment History" style="ellipse;whiteSpace=wrap;html=1;" vertex="1" parent="1">
          <mxGeometry x="341" y="676" width="130" height="40" as="geometry" />
        </mxCell>
        <mxCell id="R2KADZB4RXVdeiBkRrap-14" value="&lt;div&gt;Bank&lt;/div&gt;" style="shape=umlActor;verticalLabelPosition=bottom;verticalAlign=top;html=1;outlineConnect=0;" vertex="1" parent="1">
          <mxGeometry x="800" y="492" width="30" height="60" as="geometry" />
        </mxCell>
        <mxCell id="R2KADZB4RXVdeiBkRrap-21" value="" style="endArrow=open;endFill=1;endSize=12;html=1;rounded=0;entryX=0.628;entryY=0.38;entryDx=0;entryDy=0;entryPerimeter=0;" edge="1" parent="1">
          <mxGeometry width="160" relative="1" as="geometry">
            <mxPoint x="802" y="531" as="sourcePoint" />
            <mxPoint x="466" y="550" as="targetPoint" />
          </mxGeometry>
        </mxCell>
        <mxCell id="R2KADZB4RXVdeiBkRrap-27" value="" style="shape=singleArrow;direction=south;whiteSpace=wrap;html=1;" vertex="1" parent="1">
          <mxGeometry x="370" y="430" width="30" height="30" as="geometry" />
        </mxCell>
        <mxCell id="R2KADZB4RXVdeiBkRrap-28" value="" style="shape=singleArrow;direction=south;whiteSpace=wrap;html=1;" vertex="1" parent="1">
          <mxGeometry x="371" y="504" width="30" height="30" as="geometry" />
        </mxCell>
        <mxCell id="R2KADZB4RXVdeiBkRrap-29" value="" style="shape=singleArrow;direction=south;whiteSpace=wrap;html=1;" vertex="1" parent="1">
          <mxGeometry x="371" y="577" width="30" height="30" as="geometry" />
        </mxCell>
        <mxCell id="R2KADZB4RXVdeiBkRrap-30" value="" style="shape=singleArrow;direction=south;whiteSpace=wrap;html=1;" vertex="1" parent="1">
          <mxGeometry x="373" y="646" width="30" height="30" as="geometry" />
        </mxCell>
        <mxCell id="R2KADZB4RXVdeiBkRrap-31" value="&lt;div&gt;Merchant&lt;/div&gt;&lt;div&gt;&lt;br&gt;&lt;/div&gt;" style="shape=umlActor;verticalLabelPosition=bottom;verticalAlign=top;html=1;outlineConnect=0;" vertex="1" parent="1">
          <mxGeometry x="801" y="585" width="30" height="60" as="geometry" />
        </mxCell>
        <mxCell id="R2KADZB4RXVdeiBkRrap-32" value="" style="endArrow=open;endFill=1;endSize=12;html=1;rounded=0;" edge="1" parent="1">
          <mxGeometry width="160" relative="1" as="geometry">
            <mxPoint x="800" y="621" as="sourcePoint" />
            <mxPoint x="475" y="628" as="targetPoint" />
          </mxGeometry>
        </mxCell>
        <mxCell id="R2KADZB4RXVdeiBkRrap-33" value="&lt;div&gt;Admin&lt;/div&gt;" style="shape=umlActor;verticalLabelPosition=bottom;verticalAlign=top;html=1;outlineConnect=0;" vertex="1" parent="1">
          <mxGeometry x="801" y="677" width="30" height="60" as="geometry" />
        </mxCell>
        <mxCell id="R2KADZB4RXVdeiBkRrap-34" value="" style="endArrow=open;endFill=1;endSize=12;html=1;rounded=0;entryX=0.62;entryY=0.7;entryDx=0;entryDy=0;entryPerimeter=0;" edge="1" parent="1" target="R2KADZB4RXVdeiBkRrap-1">
          <mxGeometry width="160" relative="1" as="geometry">
            <mxPoint x="800" y="710" as="sourcePoint" />
            <mxPoint x="485" y="702" as="targetPoint" />
          </mxGeometry>
        </mxCell>
      </root>
    </mxGraphModel>
  </diagram>
</mxfile>
